<svg width="172" height="172" viewBox="0 0 172 172" fill="none" xmlns="http://www.w3.org/2000/svg">
<path fill-rule="evenodd" clip-rule="evenodd" d="M59.125 48.375C59.125 41.2473 61.9565 34.4115 66.9965 29.3715C72.0365 24.3315 78.8723 21.5 86 21.5C93.1277 21.5 99.9635 24.3315 105.003 29.3715C110.044 34.4115 112.875 41.2473 112.875 48.375C112.875 55.5027 110.044 62.3385 105.003 67.3785C99.9635 72.4185 93.1277 75.25 86 75.25C78.8723 75.25 72.0365 72.4185 66.9965 67.3785C61.9565 62.3385 59.125 55.5027 59.125 48.375ZM112.875 69.875C112.875 64.1728 115.14 58.7042 119.172 54.6722C123.204 50.6402 128.673 48.375 134.375 48.375C140.077 48.375 145.546 50.6402 149.578 54.6722C153.61 58.7042 155.875 64.1728 155.875 69.875C155.875 75.5772 153.61 81.0458 149.578 85.0778C145.546 89.1098 140.077 91.375 134.375 91.375C128.673 91.375 123.204 89.1098 119.172 85.0778C115.14 81.0458 112.875 75.5772 112.875 69.875ZM16.125 69.875C16.125 64.1728 18.3902 58.7042 22.4222 54.6722C26.4542 50.6402 31.9228 48.375 37.625 48.375C43.3272 48.375 48.7958 50.6402 52.8278 54.6722C56.8598 58.7042 59.125 64.1728 59.125 69.875C59.125 75.5772 56.8598 81.0458 52.8278 85.0778C48.7958 89.1098 43.3272 91.375 37.625 91.375C31.9228 91.375 26.4542 89.1098 22.4222 85.0778C18.3902 81.0458 16.125 75.5772 16.125 69.875ZM45.2217 108.338C49.593 101.487 55.6211 95.8488 62.7486 91.9443C69.8762 88.0399 77.8731 85.9954 86 86C92.8071 85.9938 99.5387 87.4253 105.754 90.2008C111.97 92.9764 117.529 97.0333 122.068 102.106C126.607 107.179 130.023 113.153 132.094 119.638C134.164 126.122 134.841 132.971 134.081 139.736C133.988 140.576 133.698 141.383 133.235 142.09C132.772 142.797 132.148 143.385 131.415 143.806C117.595 151.736 101.934 155.898 86 155.875C70.0658 155.9 54.4046 151.738 40.5848 143.806C39.8516 143.385 39.228 142.797 38.7648 142.09C38.3016 141.383 38.0117 140.576 37.9188 139.736C36.7152 128.746 39.291 117.675 45.2217 108.346V108.338Z" fill="white"/>
<path d="M36.4211 102.154C29.353 113.064 26.0599 125.992 27.0471 138.954C22.7436 138.302 18.5109 137.246 14.4051 135.801L13.5809 135.514C12.8456 135.254 12.2017 134.785 11.7273 134.165C11.2528 133.546 10.9681 132.802 10.9078 132.024L10.8361 131.157C10.5466 127.559 10.9848 123.94 12.1247 120.515C13.2645 117.09 15.0826 113.93 17.4704 111.223C19.8583 108.516 22.7669 106.318 26.0228 104.76C29.2787 103.202 32.8151 102.315 36.4211 102.154ZM144.953 138.954C145.94 125.992 142.647 113.064 135.579 102.154C139.185 102.315 142.721 103.202 145.977 104.76C149.233 106.318 152.142 108.516 154.53 111.223C156.918 113.93 158.736 117.09 159.875 120.515C161.015 123.94 161.454 127.559 161.164 131.157L161.092 132.024C161.031 132.801 160.745 133.543 160.271 134.161C159.797 134.779 159.154 135.247 158.419 135.507L157.595 135.794C153.532 137.227 149.31 138.295 144.953 138.954Z" fill="white"/>
</svg>
