<svg id="Layer_1" data-name="Layer 1" xmlns="http://www.w3.org/2000/svg" viewBox="0 0 383.63 383.58"><defs><style>.cls-1{fill:#0778b6;}.cls-2{fill:#fff;}</style></defs><path class="cls-1" d="M58.08,382.73V87.94c.88-3.61.63-7.44,1.78-11,2.74-8.37,7.8-15.27,14.29-21.1A66.78,66.78,0,0,1,81.86,50c5.91-3.9,12.42-5.46,19.35-5.81.61,0,1.25.1,1.76-.38H396.29c.9.63,1.93.35,2.91.39,19.66.75,36.24,19,40.75,34.21,1.46,4.92,1.56,10.1,1.57,15.18.05,94.52-.19,189,.19,283.54.1,24.64-16.59,41.45-33,47.84-5.44,2.11-11.22,2.22-16.88,2.23-94.77.09-189.53-.13-284.3.19-24.48.08-40.83-16.56-47-31.94C58.8,391.36,59.15,386.92,58.08,382.73Z" transform="translate(-58.08 -43.8)"/><path class="cls-2" d="M262.15,213.05c13.32-17.73,31.7-21.55,51.88-20.7,13.29.56,25.58,4.06,35.48,13.56,10.09,9.68,14.45,22.15,16.8,35.5a161,161,0,0,1,2.23,27.91q.06,38.16,0,76.31c0,6.88-2.58,9.41-9.54,9.42H326.11c-6.82,0-9.36-2.44-9.37-9.14q0-34.61.05-69.2c0-8.12-.18-16.2-2.8-24-3.06-9.15-9-15.2-18.77-16.57-11-1.54-20.29,1.5-26.47,11.33-4.77,7.59-6.71,16-6.73,24.92-.06,23.94,0,47.88,0,71.82,0,8.73-2.12,10.85-10.76,10.85-10.23,0-20.45,0-30.68,0-6.38,0-9.08-2.71-9.09-9.1q0-71.08,0-142.16c0-6.53,2.51-9.06,9-9.08q16.27-.06,32.55,0c6.46,0,9,2.6,9.1,9.09C262.19,206.88,262.15,210,262.15,213.05Z" transform="translate(-58.08 -43.8)"/><path class="cls-2" d="M138.12,274.71q0-35,0-69.93c0-7.38,2.72-10.14,10.14-10.17q15.15-.06,30.29,0c7.38,0,10.17,2.81,10.17,10.22q0,69.93,0,139.86c0,7.55-2.86,10.35-10.4,10.36q-15.33,0-30.66,0c-6.59,0-9.53-3-9.54-9.65Q138.11,310,138.12,274.71Z" transform="translate(-58.08 -43.8)"/><path class="cls-2" d="M196,147.89a32.63,32.63,0,0,1-65.26,1c-.32-17.71,14.11-32.85,31.64-33.2A32.53,32.53,0,0,1,196,147.89Z" transform="translate(-58.08 -43.8)"/></svg>