<svg id="Layer_1" data-name="Layer 1" xmlns="http://www.w3.org/2000/svg" viewBox="0 0 336.95 381.7"><defs><style>.cls-1{fill:#010101;}.cls-2{fill:#ed1b46;}.cls-3{fill:#71ccd8;}.cls-4{fill:#ee2248;}</style></defs><path class="cls-1" d="M136.15,391.18l-3.31-3C118.35,372.66,111,353.84,108,333.22c-2.9-20.11-.79-39.87,7.38-58.57q23.93-54.73,82.34-68.32A76.87,76.87,0,0,1,217,204c1.35,0,2.76-.15,3.94.78l.21.28c1.07,1.26.91,2.8.91,4.28q0,17.58,0,35.15c0,5.21-.52,5.57-5.7,4.4a53.67,53.67,0,0,0-62.59,33.19,52.17,52.17,0,0,0,15.64,58.21c1.82,1.5,3.88,2.75,5.15,4.85l2.21,2c4.3,3.42,7.36,8.08,11.8,11.4,16.68,12.49,34.93,15.28,54,7.32,18.21-7.6,29.08-21.72,32.06-41.52a64.15,64.15,0,0,0,.67-9.69q0-120.64,0-241.31c0-8.64,0-8.64,8.78-8.64,9.86,0,19.71,0,29.56,0,1.84,0,3.78-.3,5.39,1a1.41,1.41,0,0,0,.51.28c1.1,1,1.3,2.36,1.64,3.67,4.28,16.74,12.33,31.3,24.95,43.22,1.8,1.71,3.38,3.63,5.14,5.38l4.85,5.16c5.47,4.09,9.61,9.63,15,13.83A94.66,94.66,0,0,0,405.29,154c1.42.38,2.95.52,4.12,1.59a1.78,1.78,0,0,0,.25.38c1,1.4,1,3,1,4.67,0,11.22,0,22.43,0,33.65,0,5.15-.67,5.95-5.87,5.77a155.33,155.33,0,0,1-48.19-9.52,149.66,149.66,0,0,1-33.41-17.38c-1.19-.82-2.44-2.53-3.83-1.85s-.69,2.71-.69,4.13q-.06,63.58,0,127.15c0,25.48-8.57,47.92-24.12,67.7a111.25,111.25,0,0,1-64.81,40.86C199,418,170,413,143.06,396.72a34.44,34.44,0,0,1-4.22-3.07C137.92,392.85,137,392.06,136.15,391.18Z" transform="translate(-89.9 -48.51)"/><path class="cls-2" d="M138.64,392.81c12.69,8.28,26.28,14.46,41.17,17.61,62.87,13.3,123.6-26.64,136.08-88.84a119,119,0,0,0,1.93-23.77q-.17-62.61-.29-125.24v-4.69a192.85,192.85,0,0,0,18.82,12.22,150.89,150.89,0,0,0,59.77,18.27c3.47.3,6.94.5,10.42.68,2.52.13,3.1-.73,3.08-3.13-.08-13.33,0-26.66,0-40a89.32,89.32,0,0,0,14.49,1.39c2.15,0,2.68.78,2.67,2.84-.07,17.82-.11,35.65,0,53.47,0,2.73-1.29,2.62-3.17,2.56-31.48-1-60.1-10.43-85.67-28.9-.81-.58-1.61-1.17-2.43-1.74-.08-.06-.22,0-.82-.07,0,1.16,0,2.33,0,3.5.34,41.75.6,83.5,1.05,125.25.61,55.43-35.5,101.84-89.68,113.18-41.5,8.68-77.54-2.94-107.52-33a5.83,5.83,0,0,1-.62-.91C137.79,392.83,138,392.57,138.64,392.81Z" transform="translate(-89.9 -48.51)"/><path class="cls-3" d="M319,65.71c-13,0-25.92.19-38.87,0-3.18,0-3.81.84-3.8,3.88q.12,123,.05,246c0,26.93-16.4,47.89-42.48,54.36-21.1,5.24-47.25-5.21-57.16-22.82A64.13,64.13,0,0,0,207.67,354c24.24-.79,47.59-22.34,50.12-46.47a128,128,0,0,0,.6-13.41q0-120.44-.06-240.88c0-3.78.9-4.77,4.7-4.72,17,.22,33.91.15,50.87,0,2.68,0,3.88.54,3.67,3.47C317.24,56.64,318.65,61.13,319,65.71Z" transform="translate(-89.9 -48.51)"/><path class="cls-3" d="M220.89,204.79c-20.5.24-39.76,5.21-57.31,15.88-29.72,18.06-48.31,44.1-54,78.57-5.36,32.26,2.28,61.46,22.43,87.3a11.42,11.42,0,0,1,.87,1.62C121.72,380,113.07,369.67,106,358a111.57,111.57,0,0,1,8.09-127,112.29,112.29,0,0,1,54-37.68c16.47-5.4,33.31-6.69,50.48-4.78,2,.23,2.48,1.05,2.44,2.84C220.92,195.83,220.93,200.31,220.89,204.79Z" transform="translate(-89.9 -48.51)"/><path class="cls-2" d="M174.51,345.15a49.94,49.94,0,0,1-23.77-33.77c-6.36-30.67,13.53-59.22,44.56-64.31a55.69,55.69,0,0,1,25.8,2.05V205.07c5.24-.48,10.42.32,15.64.67,2.52.18,2.23,1.72,2.23,3.35q0,16.82,0,33.63c0,6.73-.15,13.46.07,20.18.1,3-.57,3.37-3.41,2.63-23.92-6.25-48.84,3.94-61,25.16-9.53,16.66-9.75,33.81-1.42,51.09C173.74,342.85,174.84,343.74,174.51,345.15Z" transform="translate(-89.9 -48.51)"/><path class="cls-3" d="M409.41,155.55c-13.06-2.07-24.73-7.46-35.43-15a75.6,75.6,0,0,1-17.91-17.11c1.54-.15,2.5,1,3.61,1.73,14.18,9.27,29.84,13.87,46.67,14.64,2.27.11,3.41.48,3.27,3.08C409.38,147.09,409.46,151.32,409.41,155.55Z" transform="translate(-89.9 -48.51)"/><path class="cls-2" d="M351.22,118.26c-3.82-1.61-6.21-4.92-8.9-7.77A87.39,87.39,0,0,1,319.49,66c4.48-.06,9-.09,13.44-.19,1.41,0,2.37.13,2.4,1.94.31,18.18,5.95,34.67,15.87,49.8C351.31,117.71,351.22,118,351.22,118.26Z" transform="translate(-89.9 -48.51)"/><path class="cls-4" d="M138.64,392.81l-.65.65a3.74,3.74,0,0,1-1.84-2.28A4.81,4.81,0,0,1,138.64,392.81Z" transform="translate(-89.9 -48.51)"/></svg>