<svg id="Layer_1" data-name="Layer 1" xmlns="http://www.w3.org/2000/svg" viewBox="0 0 406.57 331.99"><defs><style>.cls-1{fill:#39a4dd;}</style></defs><path class="cls-1" d="M50.41,371.82c45.73,4.25,86.17-6.85,123.05-34.47-4.11-.51-7.3-.76-10.43-1.3-31-5.34-52.53-22.77-65.3-51.32-.22-.48-.43-1-.62-1.47-1.54-4.13-1.19-4.46,3.22-3.86A83.2,83.2,0,0,0,132,277.59C90.69,265,68.78,237.73,65.82,194.07c12.17,6,23.93,10,37.75,10.23-7.75-5.9-14.23-11.66-19.49-18.73A84,84,0,0,1,76.29,96.5c2-4.07,1.95-4,4.76-.75,36.79,42.88,82.71,70.08,138.35,80.67,9.41,1.79,18.91,2.65,28.41,3.68,2.4.26,3.13-.11,2.69-2.95-4.74-31,3.44-57.8,27.1-78.85,19.36-17.23,42.34-23.76,68-19.89a80.42,80.42,0,0,1,46.08,23.38c1.63,1.64,3.08,1.77,5.3,1.28a170.13,170.13,0,0,0,45.35-17c1.13-.62,2.17-1.58,4.19-1.41-6.33,19-18.21,33.28-35.56,44.73,16.46-1.64,31-6.36,45.31-11.76l.68.89c-2.59,3.55-5,7.24-7.8,10.61-8.52,10.25-17.77,19.79-28.57,27.65-3.15,2.29-4.07,4.61-3.95,8.54a224.15,224.15,0,0,1-6.84,61.56c-8.77,35.33-24.24,67.43-47.06,95.81Q310,388.35,227.26,404.64a247.77,247.77,0,0,1-56.67,4.52C128.3,407.6,89,395.93,53,373.62,52.45,373.28,51.93,372.88,50.41,371.82Z" transform="translate(-50.41 -77.33)"/></svg>