<svg id="Layer_1" data-name="Layer 1" xmlns="http://www.w3.org/2000/svg" viewBox="0 0 422.3 298.71"><defs><style>.cls-1{fill:#ed2224;}.cls-2{fill:#f26346;}.cls-3{fill:#f04c35;}.cls-4{fill:#ef3f2e;}.cls-5{fill:#f05138;}.cls-6{fill:#f69172;}.cls-7{fill:#ef3b2c;}.cls-8{fill:#f4785a;}.cls-9{fill:#f8a185;}.cls-10{fill:#fab9a0;}.cls-11{fill:#fff;}</style></defs><path class="cls-1" d="M42.29,277.22v-6.59c.87-1.55.21-3.24.42-4.85-.19-1.4.42-2.87-.42-4.21v-1.65c.87-1.58.21-3.3.42-4.94-.21-1.64.45-3.36-.42-4.95v-5.76c.85-1.39.23-2.92.42-4.37v-4.54c-.21-1.7.46-3.46-.42-5.1v-4.95c.77-.91.27-2,.42-3-.06-.67.18-1.4-.42-1.95v-4.94A90.68,90.68,0,0,0,43.06,202c.28-18.54,1.66-36.91,5.74-55.07C53.48,126.07,72,108.29,93.19,105a430.72,430.72,0,0,1,43.32-4.32c13-.66,26-1,39-1.76,10.3-.56,20.58,0,30.84-.65,24.82-1.53,49.67-.69,74.5-.65,14.38,0,28.79.43,43.18.9,12.18.39,24.38.67,36.54,1.55,19,1.37,38.12,1.61,56.69,6.29,22.75,5.73,36.09,20.88,41.07,43.5,3.7,16.77,5.07,33.8,5.52,51,.56,21,.9,42,.65,63-.19,15.07-.25,30.17-1.3,45.2-.94,13.39-2.39,26.82-6,39.78-5.93,21.48-22.38,37-46.49,40.46-16.15,2.32-32.38,3.55-48.69,4.3-15.47.71-30.95,1.09-46.42,1.67-38.56,1.46-77.13.62-115.69.47-15.32-.05-30.7-.45-46-1.51-20.07-1.38-40.24-1.89-60.09-5.65C68.31,383.73,51.46,366,47.19,340.19A336.54,336.54,0,0,1,43,291.1C42.92,286.5,43.23,281.81,42.29,277.22Z" transform="translate(-42.29 -97.38)"/><path class="cls-2" d="M42.29,230.26c1.54,1.43.58,3.25.76,4.89-.22.57-.47.59-.76,0Z" transform="translate(-42.29 -97.38)"/><path class="cls-3" d="M42.29,235.2c.26,0,.51,0,.76,0,0,1.66,0,3.31,0,5-.25.55-.51.56-.8,0Z" transform="translate(-42.29 -97.38)"/><path class="cls-4" d="M42.29,250c1.32,1.49.68,3.29.79,5-.28.51-.54.5-.79,0Z" transform="translate(-42.29 -97.38)"/><path class="cls-5" d="M42.29,255l.79,0c-.17,1.66.62,3.46-.79,4.92Z" transform="translate(-42.29 -97.38)"/><path class="cls-6" d="M43,265.74c-.14,1.64.92,3.46-.7,4.89v-4.94C42.57,265.14,42.8,265.16,43,265.74Z" transform="translate(-42.29 -97.38)"/><path class="cls-7" d="M42.29,240.15l.8,0c-.06,1.42.39,2.94-.8,4.15Z" transform="translate(-42.29 -97.38)"/><path class="cls-8" d="M43,265.74l-.7-.05v-4.12C43.56,262.79,43.06,264.3,43,265.74Z" transform="translate(-42.29 -97.38)"/><path class="cls-9" d="M43,222c0,1.16.61,2.45-.71,3.32V222C42.51,221.56,42.75,221.57,43,222Z" transform="translate(-42.29 -97.38)"/><path class="cls-10" d="M43,222l-.71,0v-1.65C43.3,220.58,43.09,221.31,43,222Z" transform="translate(-42.29 -97.38)"/><path class="cls-11" d="M321,246.94,211.36,310.08V183.8Z" transform="translate(-42.29 -97.38)"/></svg>